<svg xmlns="http://www.w3.org/2000/svg" width="1200" height="300" viewBox="0 0 1200 300" fill="none">
  <defs>
    <pattern id="grid" width="32" height="32" patternUnits="userSpaceOnUse">
      <path d="M32 0H0V32" stroke="#203A43" stroke-opacity=".08" />
    </pattern>
  </defs>
  <rect width="1200" height="300" rx="18" fill="#F4F1E8" />
  <rect width="1200" height="300" rx="18" fill="url(#grid)" />
  <circle cx="1050" cy="46" r="128" fill="#D8E7DF" />
  <circle cx="1130" cy="264" r="100" fill="#F4C6A8" fill-opacity=".78" />
  <path d="M0 250C140 215 222 302 382 267C518 238 586 214 730 267" stroke="#D56A4A" stroke-width="3" stroke-linecap="round" />
  <path d="M80 94H450" stroke="#B9C8C1" stroke-width="1" />
  <text x="82" y="82" fill="#49645F" font-family="Segoe UI, Arial, sans-serif" font-size="15" font-weight="700" letter-spacing="2">DESENVOLVIMENTO DE SOFTWARE</text>
  <text x="78" y="151" fill="#18343A" font-family="Segoe UI, Arial, sans-serif" font-size="48" font-weight="700">Gustavo Marx</text>
  <text x="82" y="187" fill="#49645F" font-family="Segoe UI, Arial, sans-serif" font-size="21">Aprendendo a construir, linha por linha.</text>
  <g transform="translate(770 75)">
    <rect x="0" y="0" width="340" height="164" rx="12" fill="#18343A" />
    <path d="M0 39H340" stroke="#38545A" />
    <circle cx="22" cy="20" r="5" fill="#E98B68" />
    <circle cx="42" cy="20" r="5" fill="#E8C06B" />
    <circle cx="62" cy="20" r="5" fill="#8DB79E" />
    <text x="24" y="77" fill="#E98B68" font-family="Consolas, monospace" font-size="17">&gt;</text>
    <text x="45" y="77" fill="#F4F1E8" font-family="Consolas, monospace" font-size="17">dotnet learn</text>
    <text x="24" y="111" fill="#8DB79E" font-family="Consolas, monospace" font-size="16">class Java { ... }</text>
    <rect x="24" y="131" width="9" height="17" rx="1" fill="#E8C06B" />
  </g>
</svg>